<svg width="435" height="56" viewBox="0 0 435 56" fill="none" xmlns="http://www.w3.org/2000/svg">
<path d="M0.0720215 21.7001H15.552V25.1201L11.352 25.8401L15.792 41.8001L17.232 48.3401L18.552 41.7401L23.952 21.7001H31.212L37.152 41.7401L38.592 48.3401L40.032 41.8001L44.232 25.9001L39.852 25.1201V21.7001H52.692V25.1201L49.632 25.7801L40.512 55.4801H33.612L27.552 36.0401L26.172 28.9001L25.092 36.0401L19.512 55.4801H12.552L2.95202 25.7801L0.0720215 25.1201V21.7001Z" fill="#4C5877"/>
<path d="M56.8226 11.1401L52.2626 10.3601V7.12008L63.4226 5.80008H63.6026L65.1626 6.94008L65.2226 20.3201L64.8027 25.5401C66.0427 24.4201 67.7226 23.3801 69.8426 22.4201C72.0026 21.4601 74.2626 20.9801 76.6227 20.9801C79.1426 20.9801 81.1026 21.4601 82.5026 22.4201C83.9026 23.3401 84.8826 24.7601 85.4426 26.6801C86.0026 28.6001 86.2826 31.1601 86.2826 34.3601V50.8601L90.1227 51.4001V55.0001H74.3426V51.4001L77.8226 50.8601V34.3601C77.8226 32.2801 77.6826 30.6601 77.4026 29.5001C77.1226 28.3401 76.6026 27.4801 75.8426 26.9201C75.1226 26.3601 74.0426 26.0801 72.6026 26.0801C71.3626 26.0801 70.0826 26.3801 68.7626 26.9801C67.4826 27.5401 66.3426 28.2201 65.3426 29.0201V50.8601L69.0026 51.4001V55.0001H53.4626V51.4001L56.8226 50.9201V11.1401Z" fill="#4C5877"/>
<path d="M109.318 55.6601C104.038 55.6601 100.098 54.1201 97.498 51.0401C94.938 47.9201 93.658 43.6801 93.658 38.3201C93.658 34.7201 94.318 31.6001 95.638 28.9601C96.998 26.3201 98.898 24.3001 101.338 22.9001C103.778 21.5001 106.598 20.8001 109.798 20.8001C113.798 20.8001 116.878 21.8601 119.038 23.9801C121.198 26.0601 122.318 29.0401 122.398 32.9201C122.398 35.5601 122.238 37.5201 121.918 38.8001H102.418C102.578 42.4401 103.438 45.2801 104.998 47.3201C106.558 49.3201 108.778 50.3201 111.658 50.3201C113.218 50.3201 114.818 50.0601 116.458 49.5401C118.138 49.0201 119.458 48.4001 120.418 47.6801L121.918 50.9801C120.838 52.1401 119.078 53.2201 116.638 54.2201C114.238 55.1801 111.798 55.6601 109.318 55.6601ZM113.998 35.2001C114.078 34.0801 114.118 33.2201 114.118 32.6201C114.118 27.3001 112.338 24.6401 108.778 24.6401C106.818 24.6401 105.298 25.4201 104.218 26.9801C103.138 28.5401 102.538 31.2801 102.418 35.2001H113.998Z" fill="#4C5877"/>
<path d="M127.186 51.4601L131.146 50.9801V27.3401L127.306 26.2601V22.1201L136.606 20.8601H136.786L138.286 22.0601V23.3801L138.106 28.2401H138.286C138.566 27.4401 139.226 26.4601 140.266 25.3001C141.306 24.1001 142.606 23.0601 144.166 22.1801C145.766 21.2601 147.486 20.8001 149.326 20.8001C150.206 20.8001 150.966 20.9201 151.606 21.1601V30.1601C150.406 29.3201 148.946 28.9001 147.226 28.9001C144.306 28.9001 141.766 29.6801 139.606 31.2401V50.9201L146.566 51.4601V55.0001H127.186V51.4601Z" fill="#4C5877"/>
<path d="M170.548 55.6601C165.268 55.6601 161.328 54.1201 158.728 51.0401C156.168 47.9201 154.888 43.6801 154.888 38.3201C154.888 34.7201 155.548 31.6001 156.868 28.9601C158.228 26.3201 160.128 24.3001 162.568 22.9001C165.008 21.5001 167.828 20.8001 171.028 20.8001C175.028 20.8001 178.108 21.8601 180.268 23.9801C182.428 26.0601 183.548 29.0401 183.628 32.9201C183.628 35.5601 183.468 37.5201 183.148 38.8001H163.648C163.808 42.4401 164.668 45.2801 166.228 47.3201C167.788 49.3201 170.008 50.3201 172.888 50.3201C174.448 50.3201 176.048 50.0601 177.688 49.5401C179.368 49.0201 180.688 48.4001 181.648 47.6801L183.148 50.9801C182.068 52.1401 180.308 53.2201 177.868 54.2201C175.468 55.1801 173.028 55.6601 170.548 55.6601ZM175.228 35.2001C175.308 34.0801 175.348 33.2201 175.348 32.6201C175.348 27.3001 173.568 24.6401 170.008 24.6401C168.048 24.6401 166.528 25.4201 165.448 26.9801C164.368 28.5401 163.768 31.2801 163.648 35.2001H175.228Z" fill="#4C5877"/>
<path d="M212.735 55.5401C210.215 55.5401 208.355 54.9601 207.155 53.8001C205.955 52.6401 205.355 50.8001 205.355 48.2801V26.2601H201.455V23.1401C201.775 23.0201 202.355 22.8201 203.195 22.5401C204.035 22.2201 204.675 21.9601 205.115 21.7601C205.795 21.2401 206.375 20.3401 206.855 19.0601C207.215 18.2201 207.875 16.1401 208.835 12.8201H213.635L213.875 21.6401H223.055V26.2601H213.935V43.1201C213.935 45.3601 213.995 46.9401 214.115 47.8601C214.235 48.7801 214.495 49.3801 214.895 49.6601C215.295 49.9001 215.995 50.0201 216.995 50.0201C217.995 50.0201 219.035 49.9201 220.115 49.7201C221.195 49.4801 222.095 49.2001 222.815 48.8801L223.955 52.2401C222.835 53.0801 221.195 53.8401 219.035 54.5201C216.875 55.2001 214.775 55.5401 212.735 55.5401Z" fill="#4C5877"/>
<path d="M227.147 38.3801C227.147 34.6201 227.887 31.4201 229.367 28.7801C230.887 26.1401 232.907 24.1601 235.427 22.8401C237.947 21.4801 240.687 20.8001 243.647 20.8001C248.687 20.8001 252.567 22.3601 255.287 25.4801C258.047 28.5601 259.427 32.7601 259.427 38.0801C259.427 41.8801 258.667 45.1201 257.147 47.8001C255.667 50.4401 253.667 52.4201 251.147 53.7401C248.667 55.0201 245.927 55.6601 242.927 55.6601C237.927 55.6601 234.047 54.1201 231.287 51.0401C228.527 47.9201 227.147 43.7001 227.147 38.3801ZM243.407 51.7601C247.927 51.7601 250.187 47.4001 250.187 38.6801C250.187 34.1201 249.647 30.6601 248.567 28.3001C247.487 25.9001 245.727 24.7001 243.287 24.7001C238.647 24.7001 236.327 29.0601 236.327 37.7801C236.327 42.3401 236.887 45.8201 238.007 48.2201C239.167 50.5801 240.967 51.7601 243.407 51.7601Z" fill="#4C5877"/>
<path d="M276.06 21.6401H291.9V25.1201L287.94 25.9001L293.4 42.2201L295.32 48.5801L296.94 42.4001L302.28 25.9001L298.5 25.1201V21.6401H311.7V25.1201L308.58 25.9001L297.42 55.4801H290.46L278.52 25.9001L276.06 25.1201V21.6401Z" fill="#4C5877"/>
<path d="M313.397 38.3801C313.397 34.6201 314.137 31.4201 315.617 28.7801C317.137 26.1401 319.157 24.1601 321.677 22.8401C324.197 21.4801 326.937 20.8001 329.897 20.8001C334.937 20.8001 338.817 22.3601 341.537 25.4801C344.297 28.5601 345.677 32.7601 345.677 38.0801C345.677 41.8801 344.917 45.1201 343.397 47.8001C341.917 50.4401 339.917 52.4201 337.397 53.7401C334.917 55.0201 332.177 55.6601 329.177 55.6601C324.177 55.6601 320.297 54.1201 317.537 51.0401C314.777 47.9201 313.397 43.7001 313.397 38.3801ZM329.657 51.7601C334.177 51.7601 336.437 47.4001 336.437 38.6801C336.437 34.1201 335.897 30.6601 334.817 28.3001C333.737 25.9001 331.977 24.7001 329.537 24.7001C324.897 24.7001 322.577 29.0601 322.577 37.7801C322.577 42.3401 323.137 45.8201 324.257 48.2201C325.417 50.5801 327.217 51.7601 329.657 51.7601Z" fill="#4C5877"/>
<path d="M361.212 55.5401C358.692 55.5401 356.832 54.9601 355.632 53.8001C354.432 52.6401 353.832 50.8001 353.832 48.2801V26.2601H349.932V23.1401C350.252 23.0201 350.832 22.8201 351.672 22.5401C352.512 22.2201 353.152 21.9601 353.592 21.7601C354.272 21.2401 354.852 20.3401 355.332 19.0601C355.692 18.2201 356.352 16.1401 357.312 12.8201H362.112L362.352 21.6401H371.532V26.2601H362.412V43.1201C362.412 45.3601 362.472 46.9401 362.592 47.8601C362.712 48.7801 362.972 49.3801 363.372 49.6601C363.772 49.9001 364.472 50.0201 365.472 50.0201C366.472 50.0201 367.512 49.9201 368.592 49.7201C369.672 49.4801 370.572 49.2001 371.292 48.8801L372.432 52.2401C371.312 53.0801 369.672 53.8401 367.512 54.5201C365.352 55.2001 363.252 55.5401 361.212 55.5401Z" fill="#4C5877"/>
<path d="M390.744 55.6601C385.464 55.6601 381.524 54.1201 378.924 51.0401C376.364 47.9201 375.084 43.6801 375.084 38.3201C375.084 34.7201 375.744 31.6001 377.064 28.9601C378.424 26.3201 380.324 24.3001 382.764 22.9001C385.204 21.5001 388.024 20.8001 391.224 20.8001C395.224 20.8001 398.304 21.8601 400.464 23.9801C402.624 26.0601 403.744 29.0401 403.824 32.9201C403.824 35.5601 403.664 37.5201 403.344 38.8001H383.844C384.004 42.4401 384.864 45.2801 386.424 47.3201C387.984 49.3201 390.204 50.3201 393.084 50.3201C394.644 50.3201 396.244 50.0601 397.884 49.5401C399.564 49.0201 400.884 48.4001 401.844 47.6801L403.344 50.9801C402.264 52.1401 400.504 53.2201 398.064 54.2201C395.664 55.1801 393.224 55.6601 390.744 55.6601ZM395.424 35.2001C395.504 34.0801 395.544 33.2201 395.544 32.6201C395.544 27.3001 393.764 24.6401 390.204 24.6401C388.244 24.6401 386.724 25.4201 385.644 26.9801C384.564 28.5401 383.964 31.2801 383.844 35.2001H395.424Z" fill="#4C5877"/>
<path d="M416.592 39.7601C414.992 36.8401 414.132 34.1601 414.012 31.7201C414.012 30.4801 414.412 29.3201 415.212 28.2401C416.012 27.1601 417.012 26.1401 418.212 25.1801C419.412 24.2201 421.092 23.0201 423.252 21.5801L425.412 20.0801C425.572 19.6801 425.752 19.0401 425.952 18.1601C426.192 17.2801 426.312 16.4201 426.312 15.5801C426.312 13.9401 425.852 12.3801 424.932 10.9001C424.012 9.42008 422.632 8.22008 420.792 7.30008C418.952 6.38008 416.692 5.92008 414.012 5.92008C412.372 5.92008 410.872 6.26008 409.512 6.94008L408.252 2.20008C409.052 1.76008 410.232 1.38008 411.792 1.06008C413.392 0.740078 415.172 0.580078 417.132 0.580078C421.092 0.580078 424.372 1.24008 426.972 2.56008C429.612 3.84008 431.532 5.56008 432.732 7.72008C433.932 9.88008 434.532 12.2801 434.532 14.9201C434.532 16.8801 434.132 18.5801 433.332 20.0201C432.532 21.4601 431.572 22.6401 430.452 23.5601C429.372 24.4801 427.972 25.4801 426.252 26.5601C425.012 27.3601 424.032 28.0401 423.312 28.6001C422.592 29.1601 422.012 29.7601 421.572 30.4001C421.372 31.0001 421.292 31.6001 421.332 32.2001C421.332 35.3601 421.492 37.8801 421.812 39.7601H416.592ZM418.212 55.5401C416.972 55.5401 415.892 55.1201 414.972 54.2801C414.052 53.4401 413.592 52.3601 413.592 51.0401C413.592 49.6001 414.132 48.4001 415.212 47.4401C416.292 46.4801 417.572 46.0001 419.052 46.0001C420.532 46.0001 421.692 46.4601 422.532 47.3801C423.412 48.2601 423.852 49.3201 423.852 50.5601C423.852 52.0801 423.312 53.3001 422.232 54.2201C421.192 55.1001 419.852 55.5401 418.212 55.5401Z" fill="#4C5877"/>
</svg>
